<svg xmlns="http://www.w3.org/2000/svg" width="372.9" height="36.47" viewBox="0 0 372.9 36.47">
  <title>IML logo</title>
  <g>
    <path d="M130.14,7.3a4.66,4.66,0,0,1,.86.2,6.14,6.14,0,0,1,3.58,3.8,12.18,12.18,0,0,1,.68,4,56.24,56.24,0,0,1-.53,8.78c-.22,1.73-.49,3.46-.71,5.19a4.66,4.66,0,0,0,0,1.33c.06.36.35.47.67.22a3.68,3.68,0,0,0,.47-.48l5.08-5.63c.2-.22.4-.44.61-.65a1.1,1.1,0,0,1,.27-.15.83.83,0,0,1,0,.29c-.1.2-.23.38-.34.57-1.94,3.21-3.88,6.43-5.83,9.63a6.61,6.61,0,0,1-1,1.29c-.42.4-.72.34-1-.15a3.31,3.31,0,0,1-.33-1.05,28.17,28.17,0,0,1-.12-5.67c.19-3.75.29-7.5.38-11.24a5.86,5.86,0,0,0-.28-1.75,1.55,1.55,0,0,0-.62-1c-.49-.21-.79.31-1,.67a11.38,11.38,0,0,0-.87,1.68,41.94,41.94,0,0,0-2.6,9.44c-.53,3.26-1,6.54-1.45,9.81-.08.56,0,1.67-.68,1.55-.53-.09-.78-.76-1.07-1.21a19.37,19.37,0,0,1-1-1.87,21.87,21.87,0,0,0-4-5.73,9.39,9.39,0,0,0-2.33-1.67A1.22,1.22,0,0,0,115,28.73a9.7,9.7,0,0,0,.31,3.19c.66,2.2,1.48,4.36,2.27,6.52a2.23,2.23,0,0,1-.82,2.92,5.15,5.15,0,0,1-6.19-.47c-1-1-.86-1.9.5-2.47a6.38,6.38,0,0,1,3.41-.27c.33,0,.66.14,1,.17.58.06.66-.05.45-.6-.53-1.43-1.1-2.84-1.59-4.28q-1.35-4-2.62-7.94a13.59,13.59,0,0,1-.75-5c.16-2.36,1.07-3.09,3.36-2.12a13.81,13.81,0,0,1,5.48,4.45,21.65,21.65,0,0,1,3.84,7.86,7.48,7.48,0,0,0,.32.94.3.3,0,0,0,.26.14.3.3,0,0,0,.17-.23c0-.71,0-1.41,0-2.12,0-2.6-.06-5.2-.06-7.8,0-1.11.07-2.23.1-3.34a22.47,22.47,0,0,1,1.08-6.35c.64-2,1.5-4.11,3.61-4.59A2.82,2.82,0,0,1,130.14,7.3Z" transform="translate(-109.85 -5.72)" fill="#fff"/>
    <g>
      <path d="M170.84,5.72h5V34.28h-5Z" transform="translate(-109.85 -5.72)" fill="#fff"/>
      <path d="M181.32,13.6h4.32v3l.08.08a7.65,7.65,0,0,1,2.72-2.7,7.25,7.25,0,0,1,3.72-1,7.73,7.73,0,0,1,5.36,1.76,6.74,6.74,0,0,1,2,5.28v14.2h-4.56v-13a5.62,5.62,0,0,0-1-3.54,3.78,3.78,0,0,0-3-1.1,5,5,0,0,0-2.08.42,4.49,4.49,0,0,0-1.56,1.16,5.44,5.44,0,0,0-1,1.74,6.21,6.21,0,0,0-.36,2.12v12.2h-4.56Z" transform="translate(-109.85 -5.72)" fill="#fff"/>
      <path d="M223.76,34.28h-4.32v-2.8h-.08a5.42,5.42,0,0,1-2.68,2.58,9.09,9.09,0,0,1-3.72.78A9.87,9.87,0,0,1,208.7,34a8.5,8.5,0,0,1-3-2.34,10,10,0,0,1-1.8-3.5,15.2,15.2,0,0,1-.6-4.34A13.89,13.89,0,0,1,204,19a9.67,9.67,0,0,1,2-3.36,7.82,7.82,0,0,1,2.88-1.94,9.17,9.17,0,0,1,3.3-.62,11,11,0,0,1,2,.18,8.65,8.65,0,0,1,1.92.58,7.63,7.63,0,0,1,1.7,1,5.66,5.66,0,0,1,1.3,1.46h.08V5.72h4.56ZM207.84,24.16a10.1,10.1,0,0,0,.34,2.6,7.11,7.11,0,0,0,1,2.28,5.26,5.26,0,0,0,1.78,1.6,5.19,5.19,0,0,0,2.56.6,5.12,5.12,0,0,0,2.62-.64,5.43,5.43,0,0,0,1.8-1.68,7.6,7.6,0,0,0,1-2.34,10.47,10.47,0,0,0,.34-2.66,8.36,8.36,0,0,0-1.54-5.36,5.07,5.07,0,0,0-4.18-1.92,5.16,5.16,0,0,0-2.7.66,5.56,5.56,0,0,0-1.8,1.72,7.17,7.17,0,0,0-1,2.4A12.57,12.57,0,0,0,207.84,24.16Z" transform="translate(-109.85 -5.72)" fill="#fff"/>
      <path d="M228.84,5.72h4.56V10h-4.56Zm0,7.88h4.56V34.28h-4.56Z" transform="translate(-109.85 -5.72)" fill="#fff"/>
      <path d="M255.68,29.68a2.42,2.42,0,0,0,.22,1.2.93.93,0,0,0,.86.36h.48a3,3,0,0,0,.64-.08v3.16l-.62.18-.78.18c-.27.05-.53.09-.8.12s-.49,0-.68,0a4.39,4.39,0,0,1-2.32-.56,2.78,2.78,0,0,1-1.2-2,8.06,8.06,0,0,1-3.34,1.92,13.14,13.14,0,0,1-3.82.6,9.34,9.34,0,0,1-2.68-.38,7,7,0,0,1-2.26-1.12,5.35,5.35,0,0,1-1.56-1.88,5.79,5.79,0,0,1-.58-2.66,6.14,6.14,0,0,1,.7-3.12,5.18,5.18,0,0,1,1.84-1.88,8.33,8.33,0,0,1,2.56-1q1.42-.3,2.86-.46a23.23,23.23,0,0,1,2.36-.34,11.15,11.15,0,0,0,2-.34,3,3,0,0,0,1.36-.74,2,2,0,0,0,.5-1.5A2.34,2.34,0,0,0,251,18a2.81,2.81,0,0,0-1-.86,4.51,4.51,0,0,0-1.38-.4,11.1,11.1,0,0,0-1.44-.1,5.73,5.73,0,0,0-3.16.8,3.12,3.12,0,0,0-1.4,2.48H238a6.86,6.86,0,0,1,1-3.32,6.62,6.62,0,0,1,2.14-2.12A8.76,8.76,0,0,1,244,13.36,17.53,17.53,0,0,1,247.4,13a14.18,14.18,0,0,1,3,.32,8.53,8.53,0,0,1,2.66,1,5.76,5.76,0,0,1,1.9,1.86,5.11,5.11,0,0,1,.72,2.78Zm-4.56-5.76a5.53,5.53,0,0,1-2.56.82q-1.52.14-3,.42a9.92,9.92,0,0,0-1.4.34,4.21,4.21,0,0,0-1.2.6,2.65,2.65,0,0,0-.82,1,3.42,3.42,0,0,0-.3,1.5,1.91,1.91,0,0,0,.44,1.28,3.18,3.18,0,0,0,1.06.82,4.88,4.88,0,0,0,1.36.42,8.45,8.45,0,0,0,1.34.12,7.41,7.41,0,0,0,1.64-.2,5.45,5.45,0,0,0,1.66-.68,4.38,4.38,0,0,0,1.3-1.22,3.09,3.09,0,0,0,.52-1.82Z" transform="translate(-109.85 -5.72)" fill="#fff"/>
      <path d="M260.6,13.6h4.32v3l.08.08a7.65,7.65,0,0,1,2.72-2.7,7.25,7.25,0,0,1,3.72-1,7.73,7.73,0,0,1,5.36,1.76,6.74,6.74,0,0,1,2,5.28v14.2H274.2v-13a5.62,5.62,0,0,0-1-3.54,3.78,3.78,0,0,0-3-1.1,5,5,0,0,0-2.08.42,4.5,4.5,0,0,0-1.56,1.16,5.46,5.46,0,0,0-1,1.74,6.23,6.23,0,0,0-.36,2.12v12.2H260.6Z" transform="translate(-109.85 -5.72)" fill="#fff"/>
      <path d="M295.24,5.72h7l7.88,22.36h.08l7.68-22.36h7V34.28h-4.76v-22H320l-7.92,22H308l-7.92-22H300v22h-4.76Z" transform="translate(-109.85 -5.72)" fill="#fff"/>
      <path d="M348.4,34.28h-4.48V31.4h-.08a6.26,6.26,0,0,1-2.5,2.5,6.8,6.8,0,0,1-3.38.94q-4.08,0-5.9-2t-1.82-6.1V13.6h4.56V26.28a5.61,5.61,0,0,0,1,3.84,3.79,3.79,0,0,0,2.92,1.12,5.75,5.75,0,0,0,2.4-.44,4.23,4.23,0,0,0,1.56-1.18,4.53,4.53,0,0,0,.86-1.78,9.23,9.23,0,0,0,.26-2.24v-12h4.56Z" transform="translate(-109.85 -5.72)" fill="#fff"/>
      <path d="M356.64,27.64a3.44,3.44,0,0,0,1.52,2.8,6,6,0,0,0,3.16.8,12.25,12.25,0,0,0,1.46-.1,6.34,6.34,0,0,0,1.54-.38,2.91,2.91,0,0,0,1.18-.82,2,2,0,0,0,.42-1.42,2,2,0,0,0-.64-1.44,4.45,4.45,0,0,0-1.54-.9,15,15,0,0,0-2.14-.58q-1.2-.24-2.44-.52a22.84,22.84,0,0,1-2.46-.68,7.9,7.9,0,0,1-2.12-1.08,5,5,0,0,1-1.5-1.74,5.55,5.55,0,0,1-.56-2.62,4.7,4.7,0,0,1,.82-2.82,6.28,6.28,0,0,1,2.08-1.84,9.07,9.07,0,0,1,2.8-1,16.47,16.47,0,0,1,2.94-.28,13.51,13.51,0,0,1,3.06.34,8.34,8.34,0,0,1,2.64,1.1,6.48,6.48,0,0,1,2,2,6.85,6.85,0,0,1,1,2.94H365a2.84,2.84,0,0,0-1.5-2.2,6.23,6.23,0,0,0-2.7-.56,9.58,9.58,0,0,0-1.14.08,5.31,5.31,0,0,0-1.24.3,2.6,2.6,0,0,0-1,.64,1.53,1.53,0,0,0-.4,1.1,1.74,1.74,0,0,0,.58,1.36,4.58,4.58,0,0,0,1.52.86,14.93,14.93,0,0,0,2.14.58l2.48.52q1.24.28,2.44.68a7.87,7.87,0,0,1,2.14,1.08,5.27,5.27,0,0,1,1.52,1.72,5.2,5.2,0,0,1,.58,2.56,5.56,5.56,0,0,1-.84,3.12,6.63,6.63,0,0,1-2.18,2.08,9.91,9.91,0,0,1-3,1.16,15.07,15.07,0,0,1-3.24.36,14.12,14.12,0,0,1-3.62-.44,8.43,8.43,0,0,1-2.88-1.34,6.47,6.47,0,0,1-1.92-2.24,7.12,7.12,0,0,1-.74-3.18Z" transform="translate(-109.85 -5.72)" fill="#fff"/>
      <path d="M374.08,5.72h4.56V10h-4.56Zm0,7.88h4.56V34.28h-4.56Z" transform="translate(-109.85 -5.72)" fill="#fff"/>
      <path d="M397.56,20.52a4.28,4.28,0,0,0-1.54-2.9,5,5,0,0,0-3.18-1,6.54,6.54,0,0,0-1.88.3,4.46,4.46,0,0,0-1.84,1.12,6.27,6.27,0,0,0-1.4,2.28,10.87,10.87,0,0,0-.56,3.82,11.18,11.18,0,0,0,.3,2.56,7,7,0,0,0,1,2.28,5.19,5.19,0,0,0,1.7,1.62,4.83,4.83,0,0,0,2.52.62,4.59,4.59,0,0,0,3.3-1.24,5.77,5.77,0,0,0,1.62-3.48h4.56a10,10,0,0,1-3.06,6.18,9.34,9.34,0,0,1-6.42,2.14,10.58,10.58,0,0,1-4.3-.82,9.1,9.1,0,0,1-3.14-2.24,9.51,9.51,0,0,1-1.94-3.38,13.19,13.19,0,0,1-.66-4.24,14.52,14.52,0,0,1,.64-4.36,10,10,0,0,1,1.92-3.54,9,9,0,0,1,3.18-2.36A10.73,10.73,0,0,1,392.8,13a12.51,12.51,0,0,1,3.42.46,9,9,0,0,1,2.88,1.38,7.35,7.35,0,0,1,2.06,2.32,8,8,0,0,1,1,3.32Z" transform="translate(-109.85 -5.72)" fill="#fff"/>
      <path d="M417.6,5.72h5V30h14.52v4.32H417.6Z" transform="translate(-109.85 -5.72)" fill="#fff"/>
      <path d="M457.24,29.68a2.41,2.41,0,0,0,.22,1.2.93.93,0,0,0,.86.36h.48a3,3,0,0,0,.64-.08v3.16l-.62.18-.78.18q-.4.08-.8.12c-.27,0-.49,0-.68,0a4.4,4.4,0,0,1-2.32-.56,2.78,2.78,0,0,1-1.2-2,8.08,8.08,0,0,1-3.34,1.92,13.14,13.14,0,0,1-3.82.6,9.34,9.34,0,0,1-2.68-.38,7,7,0,0,1-2.26-1.12,5.35,5.35,0,0,1-1.56-1.88,5.79,5.79,0,0,1-.58-2.66,6.14,6.14,0,0,1,.7-3.12,5.19,5.19,0,0,1,1.84-1.88,8.32,8.32,0,0,1,2.56-1q1.42-.3,2.86-.46a23.21,23.21,0,0,1,2.36-.34,11.13,11.13,0,0,0,2-.34,3,3,0,0,0,1.36-.74,2,2,0,0,0,.5-1.5,2.34,2.34,0,0,0-.42-1.44,2.81,2.81,0,0,0-1-.86,4.51,4.51,0,0,0-1.38-.4,11.12,11.12,0,0,0-1.44-.1,5.73,5.73,0,0,0-3.16.8,3.11,3.11,0,0,0-1.4,2.48h-4.56a6.87,6.87,0,0,1,1-3.32,6.62,6.62,0,0,1,2.14-2.12,8.77,8.77,0,0,1,2.94-1.12A17.53,17.53,0,0,1,449,13a14.19,14.19,0,0,1,3,.32,8.53,8.53,0,0,1,2.66,1,5.76,5.76,0,0,1,1.9,1.86,5.11,5.11,0,0,1,.72,2.78Zm-4.56-5.76a5.52,5.52,0,0,1-2.56.82q-1.52.14-3,.42a9.92,9.92,0,0,0-1.4.34,4.2,4.2,0,0,0-1.2.6,2.64,2.64,0,0,0-.82,1,3.43,3.43,0,0,0-.3,1.5,1.91,1.91,0,0,0,.44,1.28,3.18,3.18,0,0,0,1.06.82,4.9,4.9,0,0,0,1.36.42,8.43,8.43,0,0,0,1.34.12,7.42,7.42,0,0,0,1.64-.2,5.44,5.44,0,0,0,1.66-.68,4.37,4.37,0,0,0,1.3-1.22,3.09,3.09,0,0,0,.52-1.82Z" transform="translate(-109.85 -5.72)" fill="#fff"/>
      <path d="M462.28,5.72h4.56V16.28h.08a6.32,6.32,0,0,1,1.16-1.36,7.28,7.28,0,0,1,1.5-1,7.82,7.82,0,0,1,1.72-.64,7.48,7.48,0,0,1,1.78-.22,9.87,9.87,0,0,1,4.26.86,8.4,8.4,0,0,1,3,2.36,10.26,10.26,0,0,1,1.8,3.5,14.81,14.81,0,0,1,.6,4.28,15.16,15.16,0,0,1-.54,4,10.52,10.52,0,0,1-1.64,3.46,8,8,0,0,1-6.74,3.3,16.11,16.11,0,0,1-2.1-.14,7.93,7.93,0,0,1-2-.54,6.9,6.9,0,0,1-1.74-1,5.06,5.06,0,0,1-1.3-1.68h-.08v2.84h-4.32ZM478.2,24a10.28,10.28,0,0,0-.36-2.72,7.38,7.38,0,0,0-1.08-2.34,5.58,5.58,0,0,0-1.8-1.64,4.89,4.89,0,0,0-2.48-.62,5,5,0,0,0-4.34,2A8.82,8.82,0,0,0,466.68,24a10.57,10.57,0,0,0,.38,2.9,6.51,6.51,0,0,0,1.14,2.3A5.7,5.7,0,0,0,470,30.68a5.2,5.2,0,0,0,2.46.56,5.09,5.09,0,0,0,2.64-.64,5.59,5.59,0,0,0,1.78-1.66,6.73,6.73,0,0,0,1-2.32A11.83,11.83,0,0,0,478.2,24Z" transform="translate(-109.85 -5.72)" fill="#fff"/>
    </g>
  </g>
</svg>
